<svg xmlns="http://www.w3.org/2000/svg" xmlns:xlink="http://www.w3.org/1999/xlink" width="1445.5" height="963.667" viewBox="0 0 1445.5 963.667">
  <defs>
    <style>
      .cls-1 {
        clip-path: url(#clip-path);
      }

      .cls-2 {
        fill: url(#linear-gradient);
      }

      .cls-3 {
        clip-path: url(#clip-path-3);
      }

      .cls-4 {
        fill: #009a0b;
      }

      .cls-5 {
        fill: url(#linear-gradient-2);
      }

      .cls-6 {
        fill: #392ecf;
      }

      .cls-7 {
        fill: url(#linear-gradient-3);
      }

      .cls-8 {
        fill: url(#linear-gradient-4);
      }

      .cls-9 {
        fill: url(#linear-gradient-5);
      }

      .cls-10 {
        fill: url(#linear-gradient-6);
      }

      .cls-11 {
        fill: url(#linear-gradient-7);
      }

      .cls-12 {
        fill: url(#linear-gradient-8);
      }

      .cls-13 {
        fill: #a67070;
      }

      .cls-14 {
        fill: url(#linear-gradient-9);
      }

      .cls-15 {
        fill: #402c2c;
      }

      .cls-16 {
        fill: #fff;
      }

      .cls-17 {
        fill: none;
        stroke: #9a9fb3;
        stroke-miterlimit: 10;
      }

      .cls-18, .cls-23 {
        opacity: 0.2;
      }

      .cls-19 {
        fill: #ffadad;
      }

      .cls-20 {
        fill: #2d24a3;
      }

      .cls-21 {
        fill: #31aee0;
      }

      .cls-22 {
        fill: #ed7e7e;
      }

      .cls-24 {
        fill: url(#linear-gradient-10);
      }

      .cls-25 {
        fill: url(#linear-gradient-11);
      }

      .cls-26 {
        fill: url(#linear-gradient-12);
      }

      .cls-27 {
        fill: #9a9fb3;
      }
    </style>
    <clipPath id="clip-path">
      <path id="Path_9" data-name="Path 9" d="M1445.5,73.343v941.181a11.381,11.381,0,0,1-11.243,11.243H11.243A11.381,11.381,0,0,1,0,1014.524V73.343A11.381,11.381,0,0,1,11.243,62.1H1434.257A11.173,11.173,0,0,1,1445.5,73.343Z" transform="translate(0 -62.1)"/>
    </clipPath>
    <linearGradient id="linear-gradient" x1="0.494" y1="0.481" x2="0.586" y2="0.23" gradientUnits="objectBoundingBox">
      <stop offset="0" stop-color="#00e311"/>
      <stop offset="1" stop-color="#00fff5"/>
    </linearGradient>
    <clipPath id="clip-path-3">
      <path id="Path_11" data-name="Path 11" d="M162.44,421.693C108.8,276.5,212.872,211.935,295.747,221.893c117.567,14.134,133.95,76.772,226.783-83.839C554.01,83.446,608.3,39.439,672.22,32.693c45.935-4.818,94.439,10.279,127.2,43.044,18.31,18.31,31.159,40.8,47.541,60.711s37.9,37.9,63.6,40.474c24.734,2.57,48.826-9.315,68.42-24.092,47.862-35.656,79.663-89.942,131.059-121.422,43.044-26.34,102.149-39.832,151.617-26.019,64.566,17.667,108.573,76.451,142.623,130.737,39.832,63.6,66.493,135.235,80.306,208.794,17.667,94.439,15.419,191.77-.964,286.53-14.455,84.16-40.474,167.357-84.8,240.274-70.026,115.64-218.431,241.559-358.163,161.254-168-96.688-66.493-274.645-221.322-199.8-92.833,44.971-269.505,57.5-295.846-157.078C496.511,461.525,239.854,631.13,162.44,421.693Z" transform="translate(-147.716 0.113)"/>
    </clipPath>
    <linearGradient id="linear-gradient-2" x1="0.273" y1="0.513" x2="0.779" y2="0.049" gradientUnits="objectBoundingBox">
      <stop offset="0" stop-color="#429000"/>
      <stop offset="1" stop-color="#00fff5"/>
    </linearGradient>
    <linearGradient id="linear-gradient-3" x1="-0.001" y1="0.5" x2="0.999" y2="0.5" gradientUnits="objectBoundingBox">
      <stop offset="0" stop-color="#ffe7db"/>
      <stop offset="0.389" stop-color="#ffe9de"/>
      <stop offset="0.666" stop-color="#ffefe7"/>
      <stop offset="0.906" stop-color="#fff9f7"/>
      <stop offset="1" stop-color="#fff"/>
    </linearGradient>
    <linearGradient id="linear-gradient-4" x1="0" y1="0.5" x2="1" y2="0.5" xlink:href="#linear-gradient-3"/>
    <linearGradient id="linear-gradient-5" x1="-1.937" y1="2.259" x2="-2.085" y2="3.114" gradientUnits="objectBoundingBox">
      <stop offset="0" stop-color="#402c2c"/>
      <stop offset="0.288" stop-color="#5b3e3e"/>
      <stop offset="0.756" stop-color="#825858"/>
      <stop offset="1" stop-color="#916262"/>
    </linearGradient>
    <linearGradient id="linear-gradient-6" x1="126.169" y1="-1.88" x2="126.02" y2="-1.024" xlink:href="#linear-gradient-5"/>
    <linearGradient id="linear-gradient-7" x1="-1.977" y1="2.306" x2="-2.126" y2="3.161" xlink:href="#linear-gradient-5"/>
    <linearGradient id="linear-gradient-8" x1="129.251" y1="-1.929" x2="129.102" y2="-1.074" xlink:href="#linear-gradient-5"/>
    <linearGradient id="linear-gradient-9" x1="0.5" y1="0.955" x2="0.5" y2="0.02" xlink:href="#linear-gradient-5"/>
    <linearGradient id="linear-gradient-10" x1="0.462" y1="0.462" x2="0.629" y2="1.376" gradientUnits="objectBoundingBox">
      <stop offset="0" stop-color="#ffe7db"/>
      <stop offset="0.579" stop-color="#c29591"/>
      <stop offset="0.875" stop-color="#a67070"/>
    </linearGradient>
    <linearGradient id="linear-gradient-11" x1="0.501" y1="0.955" x2="0.501" y2="0.02" xlink:href="#linear-gradient-5"/>
    <linearGradient id="linear-gradient-12" x1="55.777" y1="12.905" x2="55.777" y2="11.969" xlink:href="#linear-gradient-5"/>
  </defs>
  <g id="Group_126" data-name="Group 126" transform="translate(-474.5 62.667)">
    <g id="Group_53" data-name="Group 53">
      <g id="Group_35" data-name="Group 35" class="cls-1" transform="translate(474.5 -62.667)">
        <path id="Path_8" data-name="Path 8" class="cls-2" d="M162.44,421.693C108.8,276.5,212.872,211.935,295.747,221.893c117.567,14.134,133.95,76.772,226.783-83.839C554.01,83.446,608.3,39.439,672.22,32.693c45.935-4.818,94.439,10.279,127.2,43.044,18.31,18.31,31.159,40.8,47.541,60.711s37.9,37.9,63.6,40.474c24.734,2.57,48.826-9.315,68.42-24.092,47.862-35.656,79.663-89.942,131.059-121.422,43.044-26.34,102.149-39.832,151.617-26.019,64.566,17.667,108.573,76.451,142.623,130.737,39.832,63.6,66.493,135.235,80.306,208.794,17.667,94.439,15.419,191.77-.964,286.53-14.455,84.16-40.474,167.357-84.8,240.274-70.026,115.64-218.431,241.559-358.163,161.254-168-96.688-66.493-274.645-221.322-199.8-92.833,44.971-269.505,57.5-295.846-157.078C496.511,461.525,239.854,631.13,162.44,421.693Z" transform="translate(326.782 -199.728)"/>
      </g>
      <g id="Group_38" data-name="Group 38" class="cls-1" transform="translate(474.5 -62.667)">
        <g id="Group_36" data-name="Group 36" class="cls-3" transform="translate(474.498 -199.841)">
          <path id="Path_10" data-name="Path 10" class="cls-4" d="M216.856,255.781c3.534-122.386,98.936-138.768,156.756-106.967,81.912,44.971,75.487,96.045,190.806,5.782,39.189-30.516,91.87-46.9,140.7-33.086,35.334,9.958,66.172,35.656,80.627,69.063,8.031,18.631,10.922,39.189,17.025,58.462s16.7,38.868,34.371,48.5c17.346,9.315,38.225,7.709,57.5,2.57,45.614-11.885,85.124-42.4,131.7-50.111,39.51-6.746,86.73.964,118.852,25.7,42.08,32.122,57.177,88.336,65.85,138.126,10.279,58.462,8.673,118.531-2.891,176.672-14.776,74.524-45.614,145.193-85.445,209.437-35.656,57.5-79.021,110.5-133.307,150.974-85.445,63.923-231.6,112.428-310.3,12.206-94.439-120.78,32.443-221-103.112-211.685-81.269,5.461-214.577-37.583-170.248-202.691S211.717,432.132,216.856,255.781Z" transform="translate(5.056 258.216)"/>
        </g>
        <g id="Group_37" data-name="Group 37" class="cls-3" transform="translate(474.498 -199.841)">
          <path id="Path_12" data-name="Path 12" class="cls-5" d="M313.825,255.1c44.65-114.034,140.053-97.33,183.739-47.862,62,70.026,38.868,115.961,177.636,69.705,47.22-15.74,102.47-13.17,143.586,16.382,29.874,21.2,50.111,55.893,52.359,92.191,1.285,20.237-2.891,40.474-3.855,60.711-.642,20.237,2.57,42.08,16.061,57.178,13.17,14.455,33.407,20.237,53,21.843,46.9,4.176,94.439-11.243,141.017-2.891,39.51,7.067,81.269,30.195,103.112,64.244,28.91,44.65,24.092,102.149,15.418,152.259-9.958,58.463-31.8,114.676-62.317,165.429-39.189,64.887-91.869,121.1-151.3,168.32-53,42.08-111.785,77.415-176.351,97.33-102.149,31.48-256.014,27.625-296.167-93.155-48.5-145.514,105.04-196.909-25.7-234.171-78.378-22.486-189.2-107.609-91.87-248.3C490.175,453.934,249.58,418.921,313.825,255.1Z" transform="translate(195.26 374.86)"/>
        </g>
      </g>
    </g>
    <g id="Group_67" data-name="Group 67" transform="translate(1372.992 -43.017)">
      <g id="Group_58" data-name="Group 58" transform="translate(202.62 151.888)">
        <path id="Path_66" data-name="Path 66" class="cls-6" d="M142.629,75.624H87.477L86,70.7h55.4Z" transform="translate(-76.89 -48.541)"/>
        <path id="Path_67" data-name="Path 67" class="cls-6" d="M145.229,85.024H90.077L88.6,80.1H144Z" transform="translate(-73.089 -34.797)"/>
        <path id="Path_68" data-name="Path 68" class="cls-6" d="M147.829,94.324H92.677L91.2,89.4h55.4Z" transform="translate(-69.287 -21.2)"/>
        <path id="Path_69" data-name="Path 69" class="cls-6" d="M150.429,103.624H95.277L93.8,98.7h55.4Z" transform="translate(-65.486 -7.602)"/>
        <path id="Path_70" data-name="Path 70" class="cls-6" d="M152.882,112.924H97.731L96.5,108h55.151Z" transform="translate(-61.538 5.996)"/>
        <path id="Path_71" data-name="Path 71" class="cls-6" d="M155.482,122.324H100.331L99.1,117.4h55.151Z" transform="translate(-57.737 19.74)"/>
        <path id="Path_72" data-name="Path 72" class="cls-6" d="M158.329,131.624h-55.4L101.7,126.7h55.151Z" transform="translate(-53.935 33.337)"/>
        <path id="Path_73" data-name="Path 73" class="cls-6" d="M160.929,140.924h-55.4L104.3,136h55.151Z" transform="translate(-50.134 46.935)"/>
        <path id="Path_74" data-name="Path 74" class="cls-6" d="M163.529,150.324h-55.4L106.9,145.4h55.151Z" transform="translate(-46.332 60.679)"/>
        <path id="Path_75" data-name="Path 75" class="cls-6" d="M166.129,159.624h-55.4L109.5,154.7h55.151Z" transform="translate(-42.531 74.276)"/>
        <path id="Path_76" data-name="Path 76" class="cls-6" d="M168.729,168.924h-55.4L112.1,164h55.151Z" transform="translate(-38.729 87.874)"/>
        <path id="Path_77" data-name="Path 77" class="cls-6" d="M171.329,178.224h-55.4L114.7,173.3h55.151Z" transform="translate(-34.928 101.472)"/>
        <path id="Path_78" data-name="Path 78" class="cls-6" d="M173.929,187.624h-55.4L117.3,182.7h55.151Z" transform="translate(-31.126 115.215)"/>
        <g id="Group_57" data-name="Group 57">
          <path id="Path_79" data-name="Path 79" class="cls-7" d="M180.046,389.9h-6.155L82.3,61.7h6.155Z" transform="translate(-82.3 -61.7)"/>
          <path id="Path_80" data-name="Path 80" class="cls-8" d="M202.446,389.9h-6.155L104.7,61.7h6.155Z" transform="translate(-49.549 -61.7)"/>
        </g>
      </g>
      <g id="Group_59" data-name="Group 59" transform="translate(91.063 384.065)">
        <path id="Path_81" data-name="Path 81" class="cls-9" d="M44.154,156l-7.14,88.636a3.863,3.863,0,0,0,3.447,4.186,3.926,3.926,0,0,0,4.432-3.2L59.912,157.97Z" transform="translate(-36.99 -156)"/>
        <path id="Path_82" data-name="Path 82" class="cls-10" d="M110.058,156l7.14,88.636a3.863,3.863,0,0,1-3.447,4.186,3.926,3.926,0,0,1-4.432-3.2L94.3,157.97Z" transform="translate(46.802 -156)"/>
      </g>
      <g id="Group_60" data-name="Group 60" transform="translate(55.116 375.448)">
        <path id="Path_83" data-name="Path 83" class="cls-11" d="M29.554,152.5l-7.14,88.636a3.863,3.863,0,0,0,3.447,4.186,3.926,3.926,0,0,0,4.432-3.2L45.312,154.47Z" transform="translate(-22.39 -152.5)"/>
        <path id="Path_84" data-name="Path 84" class="cls-12" d="M95.458,152.5l7.14,88.636a3.863,3.863,0,0,1-3.447,4.186,3.926,3.926,0,0,1-4.432-3.2L79.7,154.47Z" transform="translate(61.402 -152.5)"/>
      </g>
      <rect id="Rectangle_59" data-name="Rectangle 59" class="cls-13" width="175.549" height="253.844" transform="translate(85.424 144.748)"/>
      <path id="Path_85" data-name="Path 85" class="cls-14" d="M20,312.644H56.193V58.8H20Z" transform="translate(29.231 85.948)"/>
      <rect id="Rectangle_60" data-name="Rectangle 60" class="cls-15" width="163.73" height="243.01" transform="translate(91.333 150.165)"/>
      <g id="Group_61" data-name="Group 61" transform="translate(152.886 285.334)">
        <path id="Path_86" data-name="Path 86" class="cls-16" d="M160.338,170.066a55.651,55.651,0,0,0,.246-6.4,26.836,26.836,0,0,0-.739-6.4l-10.095.246a32.409,32.409,0,0,0-2.216-7.386l8.864-5.417a53.19,53.19,0,0,0-6.648-10.833l-8.617,5.417a58.864,58.864,0,0,0-5.663-5.417l4.924-8.864a45.7,45.7,0,0,0-11.326-6.155l-4.924,9.11a38.272,38.272,0,0,0-7.633-1.723l-.246-10.095a55.653,55.653,0,0,0-6.4-.246,26.836,26.836,0,0,0-6.4.739l.246,10.095a32.41,32.41,0,0,0-7.386,2.216l-5.417-8.864a53.189,53.189,0,0,0-10.833,6.648l5.417,8.617a58.865,58.865,0,0,0-5.417,5.663l-8.864-4.924a45.7,45.7,0,0,0-6.155,11.326l9.11,4.924a38.271,38.271,0,0,0-1.723,7.633l-10.095.246a55.647,55.647,0,0,0-.246,6.4,26.837,26.837,0,0,0,.739,6.4l10.095-.246a32.41,32.41,0,0,0,2.216,7.386l-8.864,5.417a53.187,53.187,0,0,0,6.648,10.833l8.617-5.417a58.865,58.865,0,0,0,5.663,5.417l-4.924,8.864a45.7,45.7,0,0,0,11.326,6.155l4.924-9.11a38.271,38.271,0,0,0,7.633,1.723l.246,10.095a55.641,55.641,0,0,0,6.4.246,26.837,26.837,0,0,0,6.4-.739l-.246-10.095a32.41,32.41,0,0,0,7.386-2.216l5.417,8.864a53.189,53.189,0,0,0,10.833-6.648l-5.417-8.617a58.862,58.862,0,0,0,5.417-5.663l8.864,4.924a45.7,45.7,0,0,0,6.155-11.326l-9.11-4.924a38.272,38.272,0,0,0,1.723-7.633ZM111.1,174.252a9.113,9.113,0,0,1-.492-18.22c4.924,0,9.356,3.939,9.356,8.864C120.206,169.82,116.02,174.006,111.1,174.252Z" transform="translate(-62.1 -115.9)"/>
        <path id="Path_87" data-name="Path 87" class="cls-17" d="M115.651,147.885A21.18,21.18,0,1,1,93.985,127.2,21.176,21.176,0,0,1,115.651,147.885Z" transform="translate(-45.727 -99.381)"/>
        <path id="Path_88" data-name="Path 88" class="cls-17" d="M130.176,153.047A30.293,30.293,0,1,1,99.153,123.5,30.6,30.6,0,0,1,130.176,153.047Z" transform="translate(-51.142 -104.79)"/>
      </g>
      <g id="Group_62" data-name="Group 62" transform="translate(95.272 161.983)">
        <path id="Path_89" data-name="Path 89" class="cls-16" d="M167.961,138.925c.246-2.708.492-5.663.492-8.371s-.246-5.663-.492-8.371h-13.3a44.874,44.874,0,0,0-2.708-9.848l11.572-6.648a76.9,76.9,0,0,0-8.371-14.526l-11.572,6.648a48.9,48.9,0,0,0-7.14-7.14L143.093,79.1a57.139,57.139,0,0,0-14.526-8.371L121.919,82.3a64.485,64.485,0,0,0-9.848-2.708v-13.3c-2.708-.246-5.663-.492-8.371-.492-2.955,0-5.663.246-8.371.492v13.3A44.873,44.873,0,0,0,85.48,82.3L78.832,70.724A76.9,76.9,0,0,0,64.306,79.1l6.648,11.572a48.9,48.9,0,0,0-7.14,7.14L52,90.914a57.138,57.138,0,0,0-8.371,14.526L55.2,112.088a64.487,64.487,0,0,0-2.708,9.848h-13.3c-.246,2.708-.492,5.663-.492,8.371s.246,5.663.492,8.371h13.3a44.874,44.874,0,0,0,2.708,9.848l-11.572,6.648A76.9,76.9,0,0,0,52,169.7l11.572-6.648a48.9,48.9,0,0,0,7.14,7.14L64.06,182.012a57.138,57.138,0,0,0,14.526,8.371l6.648-11.572a64.486,64.486,0,0,0,9.848,2.708v13.3c2.708.246,5.663.492,8.371.492,2.955,0,5.663-.246,8.371-.492v-13.3a44.872,44.872,0,0,0,9.848-2.708l6.648,11.572a76.9,76.9,0,0,0,14.526-8.371L136.2,170.44a48.9,48.9,0,0,0,7.14-7.14l11.572,6.648a57.138,57.138,0,0,0,8.371-14.526l-11.572-6.648a64.486,64.486,0,0,0,2.708-9.848Zm-64.507,3.447a12.064,12.064,0,1,1,12.064-12.064A12.084,12.084,0,0,1,103.454,142.372Z" transform="translate(-38.7 -65.8)"/>
        <circle id="Ellipse_1" data-name="Ellipse 1" class="cls-17" cx="27.576" cy="27.576" r="27.576" transform="translate(25.7 64.615) rotate(-45)"/>
        <circle id="Ellipse_2" data-name="Ellipse 2" class="cls-17" cx="39.64" cy="39.64" r="39.64" transform="translate(8.638 64.615) rotate(-45)"/>
      </g>
      <g id="Group_63" data-name="Group 63" transform="translate(0.008 156.812)">
        <path id="Path_90" data-name="Path 90" class="cls-15" d="M6.6,188.8.2,206.281H34.423s-9.356-8.371-18.958-9.848L13,191.262Z" transform="translate(0.273 119.21)"/>
        <path id="Path_91" data-name="Path 91" class="cls-15" d="M34.578,188.8,29.9,206.281H64.123s-9.356-8.371-18.958-9.848l-2.462-5.17Z" transform="translate(43.698 119.21)"/>
        <path id="Path_92" data-name="Path 92" class="cls-16" d="M51.908,118.6,63.973,295.38H51.908S36.151,233.827,38.12,216.592L16.7,118.6H51.908Z" transform="translate(24.398 16.57)"/>
        <path id="Path_93" data-name="Path 93" class="cls-18" d="M18.8,132.54l16.25,74.11c-1.97,17.235,13.788,78.788,13.788,78.788H60.9l-6.4-92.575L30.618,125.4Z" transform="translate(27.468 26.512)"/>
        <path id="Path_94" data-name="Path 94" class="cls-16" d="M62.56,119.846,13.072,293.917H1.5S9.379,220.3,19.72,206.759L26.614,119.6H63.791" transform="translate(2.174 18.032)"/>
        <path id="Path_95" data-name="Path 95" class="cls-19" d="M38.085,112.942,88.312,75.026,101.361,63.7l8.617.739,2.462,3.693L102.1,73.056s7.633,1.723,7.633,2.708-12.064,2.955-16.25,3.2l-39.148,39.64L37.1,128.946Z" transform="translate(54.225 -63.7)"/>
        <path id="Path_96" data-name="Path 96" class="cls-20" d="M34.432,90.61l16.25-9.11s6.155,11.079,6.894,20.682L30,125.818Z" transform="translate(43.844 -37.674)"/>
        <path id="Path_97" data-name="Path 97" class="cls-18" d="M37.533,112.983,34.332,85.9h0L29.9,119.385Z" transform="translate(43.698 -31.241)"/>
        <path id="Path_98" data-name="Path 98" class="cls-19" d="M.6,128.7l8.125-19.2,10.095,5.663-6.648,16.742Z" transform="translate(0.858 3.265)"/>
        <path id="Path_99" data-name="Path 99" class="cls-19" d="M37.859,75.577l6.894,11.08L41.306,88.38s2.216,6.648,1.231,9.356c-.985,2.462-4.678,3.939-4.678,6.155a48.771,48.771,0,0,0,.985,6.894l-12.8,5.417s-1.723-11.572-3.447-12.8S10.529,97.49,11.76,89.365L30.965,74.1Z" transform="translate(17.027 -48.494)"/>
        <path id="Path_100" data-name="Path 100" class="cls-15" d="M27.663,95.489c-1.723,0-3.693-.246-4.924-3.447s.492-4.186,1.97-4.432,3.939,5.663,4.924,4.924-.492-8.371-.492-8.371c2.216-2.955.739-7.386.739-7.386L26.924,75.3,11.659,87.611c-1.231,8.125,9.356,12.8,10.833,14.034a9.757,9.757,0,0,1,1.477,3.2A8.531,8.531,0,0,0,27.663,95.489Z" transform="translate(16.882 -46.74)"/>
        <path id="Path_101" data-name="Path 101" class="cls-20" d="M8.9,110.414c13.3-9.6,46.288-18.466,56.382-25.114,0,0-2.708,69.924,3.2,92.822,0,0-23.636,5.17-57.613,3.2C10.87,181.076,17.271,131.588,8.9,110.414Z" transform="translate(12.994 -32.118)"/>
        <path id="Path_102" data-name="Path 102" class="cls-18" d="M21.4,92.7s10.095,42.348,3.693,66.477C31.495,137.018,26.817,106.98,21.4,92.7Z" transform="translate(31.27 -21.299)"/>
        <path id="Path_103" data-name="Path 103" class="cls-18" d="M16.9,104.5l-6.155,3.939a151.9,151.9,0,0,1-.246,18.466Z" transform="translate(15.333 -4.046)"/>
        <path id="Path_104" data-name="Path 104" class="cls-20" d="M19.72,95.5C12.826,100.917,1.5,133.17,1.5,133.17L22.92,141.3l7.386-23.39C30.06,117.659,26.86,100.178,19.72,95.5Z" transform="translate(2.174 -17.205)"/>
        <path id="Path_105" data-name="Path 105" class="cls-18" d="M45.532,114.981c-.246-1.231-.492-2.216-.739-3.447a12.368,12.368,0,0,0-1.231-3.2l-5.17,1.723a14.991,14.991,0,0,0-2.955-3.693l2.462-4.678a21.006,21.006,0,0,0-6.155-3.2l-2.462,4.678a15.152,15.152,0,0,0-4.678-.492L22.881,97.5c-1.231.246-2.216.492-3.447.739a12.369,12.369,0,0,0-3.2,1.231l1.723,5.17a14.991,14.991,0,0,0-3.693,2.955l-4.678-2.462a21.006,21.006,0,0,0-3.2,6.155l4.678,2.462a15.151,15.151,0,0,0-.492,4.678L5.4,120.151c.246,1.231.492,2.216.739,3.447a12.368,12.368,0,0,0,1.231,3.2l5.17-1.723a14.99,14.99,0,0,0,2.955,3.693l-2.462,4.678a21.006,21.006,0,0,0,6.155,3.2l2.462-4.678a15.151,15.151,0,0,0,4.678.492l1.723,5.17c1.231-.246,2.216-.492,3.447-.739a12.369,12.369,0,0,0,3.2-1.231l-1.723-5.17a14.991,14.991,0,0,0,3.693-2.955L41.347,130a21.006,21.006,0,0,0,3.2-6.155l-4.678-2.462a15.151,15.151,0,0,0,.492-4.678Zm-18.958,6.648a4.363,4.363,0,1,1,2.955-5.417A4.265,4.265,0,0,1,26.574,121.629Z" transform="translate(7.876 -14.281)"/>
        <path id="Path_106" data-name="Path 106" class="cls-16" d="M46.332,114.081c-.246-1.231-.492-2.216-.739-3.447a12.368,12.368,0,0,0-1.231-3.2l-5.17,1.723a14.99,14.99,0,0,0-2.955-3.693l2.462-4.678a21.007,21.007,0,0,0-6.155-3.2l-2.462,4.678a15.152,15.152,0,0,0-4.678-.492L23.681,96.6c-1.231.246-2.216.492-3.447.739a12.368,12.368,0,0,0-3.2,1.231l1.723,5.17a14.99,14.99,0,0,0-3.693,2.955l-4.678-2.462a21.007,21.007,0,0,0-3.2,6.155l4.678,2.462a15.152,15.152,0,0,0-.492,4.678L6.2,119.251c.246,1.231.492,2.216.739,3.447a12.368,12.368,0,0,0,1.231,3.2l5.17-1.723a14.991,14.991,0,0,0,2.955,3.693l-2.462,4.678a21.006,21.006,0,0,0,6.155,3.2l2.462-4.678a15.152,15.152,0,0,0,4.678.492l1.723,5.17c1.231-.246,2.216-.492,3.447-.739a12.368,12.368,0,0,0,3.2-1.231l-1.723-5.17a14.991,14.991,0,0,0,3.693-2.955l4.678,2.462a21.006,21.006,0,0,0,3.2-6.155l-4.678-2.462a15.152,15.152,0,0,0,.492-4.678Zm-18.958,6.894a4.363,4.363,0,1,1,2.955-5.417A4.265,4.265,0,0,1,27.374,120.975Z" transform="translate(9.046 -15.597)"/>
        <path id="Path_107" data-name="Path 107" class="cls-21" d="M17.785,89.5s2.462,1.97,7.879,1.477v6.4L16.8,94.424Z" transform="translate(24.544 -25.978)"/>
        <path id="Path_108" data-name="Path 108" class="cls-21" d="M20.4,93.9l4.678,4.924,4.432-8.371L26.063,87.5S24.832,90.7,20.4,93.9Z" transform="translate(29.808 -28.902)"/>
        <path id="Path_109" data-name="Path 109" class="cls-18" d="M37.8,75.577,30.658,74.1,11.7,89.365l28.56-9.848Z" transform="translate(17.087 -48.494)"/>
        <path id="Path_110" data-name="Path 110" class="cls-22" d="M12.624,93.967S50.541,75.994,50.295,75.5c-.246-.739-10.833,3.2-10.833,3.2S35.029,69.839,27.4,71.07s-15.511,9.11-16.25,13.049C10.655,87.812,12.624,93.967,12.624,93.967Z" transform="translate(16.163 -53.096)"/>
        <path id="Path_111" data-name="Path 111" class="cls-19" d="M.481,139.166c1.723,4.678,11.079,4.678,42.348-16.989,0,0,7.386-.739,10.587-3.447,2.955-2.708,6.155-9.356,6.155-9.356l-1.231-.739S49.477,113.56,48,112.821s2.708-6.155,1.97-6.4c-.739-.492-7.633,4.678-10.095,9.11,0,0-21.667,8.617-30.038,12.064C1.712,131.287-1.242,134.98.481,139.166Z" transform="translate(-0.008 -1.287)"/>
      </g>
      <g id="Group_65" data-name="Group 65" transform="translate(186.617 322.633)">
        <path id="Path_112" data-name="Path 112" class="cls-19" d="M120.386,160.549l19.2,12.8-9.6,29.792s-6.894,3.2-8.125,5.417-3.447,5.417-2.216,5.417c1.231-.246,4.924-3.2,5.663-3.2s-1.231,8.371-1.231,8.371,6.4-.739,8.864-4.432,3.939-10.095,3.939-10.095,11.326-21.42,14.28-36.193c0,0-21.42-18.466-28.314-21.174C115.462,144.546,111.276,155.379,120.386,160.549Z" transform="translate(-18.208 -107.981)"/>
        <path id="Path_113" data-name="Path 113" class="cls-18" d="M127.555,155l9.6,6.4-9.6,29.792s-6.894,3.2-8.125,5.417c-1.231,2.462-3.447,5.417-2.216,5.417,1.231-.246,4.924-3.2,5.663-3.2s-1.231,8.371-1.231,8.371,6.4-.739,8.864-4.432,3.939-10.095,3.939-10.095,9.356-17.235,13.049-31.515Z" transform="translate(-15.775 -96.03)"/>
        <path id="Path_114" data-name="Path 114" class="cls-20" d="M147.568,167.4l-2.462,3.693s-52.443-2.708-59.337,6.4,9.11,25.114,28.314,37.424,12.557,8.371,12.557,8.371-18.22,2.462-17.973,5.417c.246,2.708,34.716,0,34.716,0L112.36,193.5l43.579,2.216,9.356-26.1Z" transform="translate(-63.61 -77.9)"/>
        <g id="Group_64" data-name="Group 64" class="cls-23" transform="translate(35.947 89.5)">
          <path id="Path_115" data-name="Path 115" d="M117.483,207.161s-18.22,2.462-17.973,5.417c.246,2.708,34.716,0,34.716,0L104.68,178.6c-5.663,3.693-10.833,6.894-14.28,9.356a143.289,143.289,0,0,0,14.773,10.833C123.885,211.1,117.483,207.161,117.483,207.161Z" transform="translate(-90.4 -151.024)"/>
          <path id="Path_116" data-name="Path 116" d="M126.545,174.786S111.034,184.635,97,193.5l40.132,1.97,9.356-26.1-16.742-1.97Z" transform="translate(-80.75 -167.4)"/>
        </g>
        <path id="Path_117" data-name="Path 117" class="cls-6" d="M140.148,166.7l-1.477,10.095s-24.129,15.511-33.731,28.807-17.481,27.822-13.788,33.485c6.4,9.848,67.954-16.25,67.954-16.25l-1.97,10.095s-9.11,5.663-8.125,7.14,18.958-3.939,18.958-3.939,5.417-23.144,3.693-28.068c-1.97-4.924-14.034,6.155-14.034,6.155l-30.776,3.939s23.39-11.079,36.193-20.682c9.356-7.14,11.572-19.7,5.663-30.776H140.148Z" transform="translate(-54.712 -78.923)"/>
        <path id="Path_118" data-name="Path 118" class="cls-19" d="M131.151,190.586,108.5,193.294c.985,1.97,2.462,6.648.246,14.773,13.049-4.678,23.636-9.11,23.636-9.11l-1.97,10.095s-9.11,5.663-8.125,7.14,18.958-3.939,18.958-3.939,5.417-23.144,3.693-28.068C143.216,179.506,131.151,190.586,131.151,190.586Z" transform="translate(-27.989 -55.044)"/>
        <path id="Path_119" data-name="Path 119" class="cls-15" d="M126.209,187.9,129.163,198l-5.663,3.939-1.231,7.14s-9.11,5.663-8.125,7.14,18.958-3.939,18.958-3.939,5.417-23.144,3.693-28.068C135.811,181.007,129.9,184.946,126.209,187.9Z" transform="translate(-19.845 -55.067)"/>
        <path id="Path_120" data-name="Path 120" class="cls-22" d="M101.34,135.061s-11.08,14.526,9.848,18.958,17.235-7.386,16-10.341C125.715,140.724,108.48,132.107,101.34,135.061Z" transform="translate(-42.742 -126.072)"/>
        <path id="Path_121" data-name="Path 121" class="cls-19" d="M100.4,139.239s1.97,8.864,0,12.311h3.2l2.955,5.909c1.231,2.462,5.417-.985,6.894,0s4.678,9.6,4.678,9.6l15.511-4.678L120.589,135.3Z" transform="translate(-39.832 -124.833)"/>
        <path id="Path_122" data-name="Path 122" class="cls-24" d="M107.979,148.039s5.417.985,13.542-3.939l2.708,2.708,10.095.985s9.11,11.326,10.587,24.867c1.477,13.788,3.2,21.667,6.155,24.621s.246,6.4-2.462,6.894-26.1,1.231-30.776,1.231-2.955-4.432-.985-6.4c1.97-1.723,2.216-11.326-1.477-14.773s-8.617-5.909-10.341-11.572c-2.462-7.879,4.186-20.436,4.186-20.436Z" transform="translate(-33.87 -111.967)"/>
        <path id="Path_123" data-name="Path 123" class="cls-19" d="M123.319,176.256s14.526-14.773,18.22-19.943,10.587-9.848,14.773-4.678c3.693,4.432-2.708,11.326-4.186,13.542-.985,1.723-16.5,15.511-23.39,21.913a7.1,7.1,0,0,1-7.879.985L92.789,172.563a10.818,10.818,0,0,1-6.155.985c-3.447-.492-2.955-.246-4.432-1.723s-6.4-4.678-6.4-6.648c0,0,10.833,1.477,12.311,0s-1.723-6.155,0-7.633l5.909,7.386Z" transform="translate(-75.8 -104.237)"/>
        <path id="Path_124" data-name="Path 124" class="cls-18" d="M111.211,146.1c.739,8.371,10.095,8.617,13.3,13.542,2.955,4.924.985,8.617,6.648,10.587s14.526,11.818,19.2,5.663a60.868,60.868,0,0,0-7.633-13.788l-7.386-.739L126.722,143.4h0l-3.447-6.894-5.909,1.231c-5.663-2.462-12.557-4.186-16.5-2.708a17.108,17.108,0,0,0-1.97,3.447C99.392,146.843,111.211,146.1,111.211,146.1Z" transform="translate(-42.025 -126.035)"/>
        <path id="Path_125" data-name="Path 125" class="cls-22" d="M98.617,139.792c.739-8.125,14.034-10.587,22.159-7.386,7.879,3.2,8.864,10.095,15.758,13.049,6.894,3.2,7.14,9.356,10.833,13.049s9.6,10.095,5.663,17.481-14.034-2.216-19.7-3.939c-5.909-1.477-3.939-5.417-7.386-10.095-3.447-4.924-12.8-4.186-14.034-12.557C111.666,149.148,97.878,150.872,98.617,139.792Z" transform="translate(-42.481 -131.049)"/>
        <path id="Path_126" data-name="Path 126" class="cls-18" d="M111.926,188.185,100.6,196.064l19.451-8.864Z" transform="translate(-39.54 -48.95)"/>
      </g>
      <path id="Path_127" data-name="Path 127" class="cls-25" d="M37.1,111.4V230.32h80.265Z" transform="translate(54.233 162.855)"/>
      <path id="Path_128" data-name="Path 128" class="cls-26" d="M139.714,150.721V61.1H78.9Z" transform="translate(115.349 89.311)"/>
      <g id="Group_66" data-name="Group 66" transform="translate(136.143 124.559)">
        <rect id="Rectangle_61" data-name="Rectangle 61" class="cls-27" width="51.704" height="20.189"/>
        <rect id="Rectangle_62" data-name="Rectangle 62" class="cls-18" width="51.704" height="6.648" transform="translate(0 13.295)"/>
      </g>
    </g>
  </g>
</svg>
