<svg xmlns="http://www.w3.org/2000/svg" xmlns:xlink="http://www.w3.org/1999/xlink" width="1445.5" height="963.666" viewBox="0 0 1445.5 963.666">
  <defs>
    <clipPath id="clip-path">
      <path id="Path_9" data-name="Path 9" d="M1445.5,73.343v941.181a11.381,11.381,0,0,1-11.243,11.243H11.243A11.381,11.381,0,0,1,0,1014.524V73.343A11.381,11.381,0,0,1,11.243,62.1H1434.257A11.173,11.173,0,0,1,1445.5,73.343Z" transform="translate(0 -62.1)"/>
    </clipPath>
    <linearGradient id="linear-gradient" x1="0.494" y1="0.481" x2="0.586" y2="0.23" gradientUnits="objectBoundingBox">
      <stop offset="0" stop-color="#ffafe0"/>
      <stop offset="1" stop-color="#ff5dc1"/>
    </linearGradient>
    <clipPath id="clip-path-3">
      <path id="Path_11" data-name="Path 11" d="M162.44,421.693C108.8,276.5,212.872,211.935,295.747,221.893c117.567,14.134,133.95,76.772,226.783-83.839C554.01,83.446,608.3,39.439,672.22,32.693c45.935-4.818,94.439,10.279,127.2,43.044,18.31,18.31,31.159,40.8,47.541,60.711s37.9,37.9,63.6,40.474c24.734,2.57,48.826-9.315,68.42-24.092,47.862-35.656,79.663-89.942,131.059-121.422,43.044-26.34,102.149-39.832,151.617-26.019,64.566,17.667,108.573,76.451,142.623,130.737,39.832,63.6,66.493,135.235,80.306,208.794,17.667,94.439,15.419,191.77-.964,286.53-14.455,84.16-40.474,167.357-84.8,240.274-70.026,115.64-218.431,241.559-358.163,161.254-168-96.688-66.493-274.645-221.322-199.8-92.833,44.971-269.505,57.5-295.846-157.078C496.511,461.525,239.854,631.13,162.44,421.693Z" transform="translate(-147.716 0.113)"/>
    </clipPath>
    <linearGradient id="linear-gradient-2" x1="0.273" y1="0.513" x2="0.779" y2="0.049" gradientUnits="objectBoundingBox">
      <stop offset="0" stop-color="#ff5dc1"/>
      <stop offset="1" stop-color="#ffafe0"/>
    </linearGradient>
  </defs>
  <g id="Group_125" data-name="Group 125" transform="translate(-473.5 63.666)">
    <g id="Group_35" data-name="Group 35" transform="translate(473.5 -63.667)" clip-path="url(#clip-path)">
      <path id="Path_8" data-name="Path 8" d="M162.44,421.693C108.8,276.5,212.872,211.935,295.747,221.893c117.567,14.134,133.95,76.772,226.783-83.839C554.01,83.446,608.3,39.439,672.22,32.693c45.935-4.818,94.439,10.279,127.2,43.044,18.31,18.31,31.159,40.8,47.541,60.711s37.9,37.9,63.6,40.474c24.734,2.57,48.826-9.315,68.42-24.092,47.862-35.656,79.663-89.942,131.059-121.422,43.044-26.34,102.149-39.832,151.617-26.019,64.566,17.667,108.573,76.451,142.623,130.737,39.832,63.6,66.493,135.235,80.306,208.794,17.667,94.439,15.419,191.77-.964,286.53-14.455,84.16-40.474,167.357-84.8,240.274-70.026,115.64-218.431,241.559-358.163,161.254-168-96.688-66.493-274.645-221.322-199.8-92.833,44.971-269.505,57.5-295.846-157.078C496.511,461.525,239.854,631.13,162.44,421.693Z" transform="translate(326.782 -199.728)" fill="url(#linear-gradient)"/>
    </g>
    <g id="Group_38" data-name="Group 38" transform="translate(473.5 -63.667)" clip-path="url(#clip-path)">
      <g id="Group_36" data-name="Group 36" transform="translate(474.498 -199.841)" clip-path="url(#clip-path-3)">
        <path id="Path_10" data-name="Path 10" d="M216.856,255.781c3.534-122.386,98.936-138.768,156.756-106.967,81.912,44.971,75.487,96.045,190.806,5.782,39.189-30.516,91.87-46.9,140.7-33.086,35.334,9.958,66.172,35.656,80.627,69.063,8.031,18.631,10.922,39.189,17.025,58.462s16.7,38.868,34.371,48.5c17.346,9.315,38.225,7.709,57.5,2.57,45.614-11.885,85.124-42.4,131.7-50.111,39.51-6.746,86.73.964,118.852,25.7,42.08,32.122,57.177,88.336,65.85,138.126,10.279,58.462,8.673,118.531-2.891,176.672-14.776,74.524-45.614,145.193-85.445,209.437-35.656,57.5-79.021,110.5-133.307,150.974-85.445,63.923-231.6,112.428-310.3,12.206-94.439-120.78,32.443-221-103.112-211.685-81.269,5.461-214.577-37.583-170.248-202.691S211.717,432.132,216.856,255.781Z" transform="translate(-18.944 258.216)" fill="#ff5dc1"/>
      </g>
      <g id="Group_37" data-name="Group 37" transform="translate(474.498 -199.841)" clip-path="url(#clip-path-3)">
        <path id="Path_12" data-name="Path 12" d="M313.825,255.1c44.65-114.034,140.053-97.33,183.739-47.862,62,70.026,38.868,115.961,177.636,69.705,47.22-15.74,102.47-13.17,143.586,16.382,29.874,21.2,50.111,55.893,52.359,92.191,1.285,20.237-2.891,40.474-3.855,60.711-.642,20.237,2.57,42.08,16.061,57.178,13.17,14.455,33.407,20.237,53,21.843,46.9,4.176,94.439-11.243,141.017-2.891,39.51,7.067,81.269,30.195,103.112,64.244,28.91,44.65,24.092,102.149,15.418,152.259-9.958,58.463-31.8,114.676-62.317,165.429-39.189,64.887-91.869,121.1-151.3,168.32-53,42.08-111.785,77.415-176.351,97.33-102.149,31.48-256.014,27.625-296.167-93.155-48.5-145.514,105.04-196.909-25.7-234.171-78.378-22.486-189.2-107.609-91.87-248.3C490.175,453.934,249.58,418.921,313.825,255.1Z" transform="translate(195.26 374.86)" fill="url(#linear-gradient-2)"/>
      </g>
    </g>
    <g id="Group_117" data-name="Group 117" transform="translate(1378.632 179)">
      <path id="Path_255" data-name="Path 255" d="M181.4,260.382l20.716-145.011,55.7-7.471,28.866,151.464Z" transform="translate(-66.873 -33.187)" fill="#fab9af"/>
      <path id="Path_256" data-name="Path 256" d="M222.378,222.275v16.3a31.4,31.4,0,0,0,1.358,9.849l1.358,5.094a6.528,6.528,0,0,1-6.113,8.15H184c-.679,0-1.7-.679-1.7-1.358-.34-4.754,13.245-7.811,23.772-11.886,7.811-3.056,7.471-17.32,6.452-25.47a5,5,0,0,1,5.434-5.434h0A4.576,4.576,0,0,1,222.378,222.275Z" transform="translate(-64.721 229.399)" fill="#fab9af"/>
      <path id="Path_257" data-name="Path 257" d="M189.333,189.268c-1.019-3.736-1.358-7.471-1.7-8.83a19.479,19.479,0,0,1-1.358-2.377c-.679-1.358-2.038-3.056-2.038-4.415v-6.113c0-3.056-1.358-5.434-4.415-5.434h0c-3.4,0-4.754,2.717-4.415,6.113v4.415c.34,2.717-.679,5.094-1.358,7.471-1.7,5.094-.34,11.207,1.358,15.961,1.019,3.056,8.15,2.377,13.584,2.038,3.736-.34,8.151-1.358,7.471-3.056-1.358-2.717-14.943.679-12.565-7.132,0-.34.34-1.358,1.019-1.358,1.358,0,1.7,3.4,2.377,4.754,1.019,2.377,2.717,3.056,3.736,3.056C191.37,193.344,190.012,191.646,189.333,189.268Z" transform="translate(-86.353 96.679)" fill="#fab9af"/>
      <path id="Path_258" data-name="Path 258" d="M218.825,114.155S170.262,179.359,170.6,215.7c0,24.791,10.528,79.128,10.528,79.128a48.306,48.306,0,0,0,5.094.34,24.782,24.782,0,0,0,5.094-.679s-.34-69.279,3.736-81.845c4.075-12.226,44.488-71.317,45.507-84.222C240.9,115.513,226.976,103.627,218.825,114.155Z" transform="translate(-92.752 -27.896)" fill="#ddd"/>
      <g id="Group_113" data-name="Group 113" transform="translate(0 164.628)">
        <path id="Path_259" data-name="Path 259" d="M155.907,249.922,366.8,272.336a8.99,8.99,0,0,0,10.188-8.15l10.188-97.127a8.99,8.99,0,0,0-8.151-10.188L168.133,134.456a8.99,8.99,0,0,0-10.188,8.15l-10.188,97.127A8.99,8.99,0,0,0,155.907,249.922Z" transform="translate(-147.676 -134.376)" fill="#6200ff"/>
        <rect id="Rectangle_118" data-name="Rectangle 118" width="41.092" height="11.886" transform="translate(25.262 15.94) rotate(6.062)" fill="#b4b4ff"/>
        <rect id="Rectangle_119" data-name="Rectangle 119" width="50.261" height="11.886" transform="translate(23.261 34.131) rotate(6.062)" fill="#b4b4ff"/>
        <rect id="Rectangle_120" data-name="Rectangle 120" width="63.846" height="11.886" transform="translate(21.266 52.416) rotate(6.062)" fill="#b4b4ff"/>
        <rect id="Rectangle_121" data-name="Rectangle 121" width="79.467" height="11.886" transform="translate(19.281 70.619) rotate(6.062)" fill="#b4b4ff"/>
        <rect id="Rectangle_122" data-name="Rectangle 122" width="67.242" height="11.886" transform="translate(17.549 88.937) rotate(6.062)" fill="#b4b4ff"/>
      </g>
      <path id="Path_260" data-name="Path 260" d="M236.487,220.511l5.773,18.678c.34.679.679,1.7,1.019,2.377l4.075,5.773a6.8,6.8,0,0,1-3.736,10.188l-16.3,5.434c-8.49,2.717-19.018.34-19.018-1.7,0-5.094,4.754-1.019,12.565-6.113a63.924,63.924,0,0,0,7.811-5.434c6.792-5.094.679-18.678-3.4-26.15a4.715,4.715,0,0,1,3.056-6.792l2.038-.34A5.474,5.474,0,0,1,236.487,220.511Z" transform="translate(-2.42 226.748)" fill="#fab9af"/>
      <path id="Path_261" data-name="Path 261" d="M244.139,156.794,182.331,151.7s-6.113,44.828,9.509,125.993c7.471,38.036,22.414,111.051,22.414,111.051a16.88,16.88,0,0,0,11.547,1.019s1.019-32.262,1.7-66.562c.679-33.281,1.019-68.6,3.056-80.147C234.97,219.281,244.139,156.794,244.139,156.794Z" transform="translate(-67.465 71.76)" fill="#bcbcbc"/>
      <path id="Path_263" data-name="Path 263" d="M202.593,163.97c-6.452,34.3-20.716,85.241,6.792,133.125S265.419,394.9,265.419,394.9a18.3,18.3,0,0,0,10.188-3.4s-4.754-21.735-11.886-47.205c-7.811-29.206-18-63.166-15.282-81.165,5.434-33.281,11.547-77.769,9.509-99.5C256.929,142.236,205.989,145.971,202.593,163.97Z" transform="translate(-38.823 65.263)" fill="#bcbcbc"/>
      <path id="Path_264" data-name="Path 264" d="M180.845,256.647,203.6,115.371l55.7-7.471,29.885,149.086c.679,2.717-1.358,5.434-4.075,6.113a349.19,349.19,0,0,1-63.166,6.113c-20.716,0-32.6-4.075-38.036-6.792A5.253,5.253,0,0,1,180.845,256.647Z" transform="translate(-68.356 -33.187)" fill="#fff"/>
      <path id="Path_265" data-name="Path 265" d="M198.8,116.25a81.712,81.712,0,0,0,5.434,29.885c6.792,18.678,16.98,54,10.867,85.241-8.83,44.828-20.037,63.166-5.434,73.355,14.6,10.528,42.451-7.132,43.13-12.9s-5.434-77.43-12.565-108.334S213.4,108.1,213.4,108.1l-8.49,1.019a7.035,7.035,0,0,0-6.113,7.132Z" transform="translate(-25.182 -32.708)" fill="#ff7350"/>
      <path id="Path_266" data-name="Path 266" d="M236.836,246.7a78.568,78.568,0,0,0-9.169-25.47,138.374,138.374,0,0,1-13.924-39.734,254.7,254.7,0,0,0-9.848-35.658A87.2,87.2,0,0,1,198.8,116.29v-6.113l15.622-2.377s19.018,45.167,26.15,76.071,13.245,102.561,12.565,108.334c-.679,4.075-13.245,13.245-26.15,15.622C228.346,305.789,242.269,277.942,236.836,246.7Z" transform="translate(-25.182 -33.427)" fill="#6a6a6a"/>
      <path id="Path_267" data-name="Path 267" d="M227.7,109.5s-9.509,20.716-6.452,50.941c3.4,29.885,11.207,121.239-15.961,135.163-8.49,4.415-28.187-14.943-28.187-22.074s6.452-31.244,12.9-52.978c5.094-17.659,11.886-76.751,14.263-99.165.679-5.094,1.358-8.83,6.113-9.509Z" transform="translate(-77.176 -29.353)" fill="#6a6a6a"/>
      <path id="Path_268" data-name="Path 268" d="M189.674,155.518c1.358-4.415,2.717-10.867,4.754-19.018,9.849,4.754,20.037,9.169,29.546,13.924-21.735,2.717-32.942,28.187-34.979,48.224a60,60,0,0,0-.34,25.81c-6.452-5.094-11.547-12.226-11.547-15.961C176.769,201.364,183.561,177.253,189.674,155.518Z" transform="translate(-77.185 35.34)" fill="#ff4619"/>
      <g id="Group_114" data-name="Group 114" transform="translate(130.972 4.754)">
        <path id="Path_269" data-name="Path 269" d="M211.9,93.273c3.4-2.717,7.811-.679,8.49,3.4a15.662,15.662,0,0,0,3.736,8.49c5.094,6.113-2.377,11.886-4.075,15.961s.34,10.528-4.415,13.245-18.339,3.736-20.716-1.358C193.558,129.271,200.69,102.1,211.9,93.273Z" transform="translate(-165.855 -75.953)" fill="#3c3c3c"/>
        <path id="Path_270" data-name="Path 270" d="M186.777,112.431c-.679,27.508,23.433,33.281,38.375,33.281S240.1,127.034,240.1,115.148,228.888,87.3,213.946,87.3c-11.547,0-22.753,9.169-27.168,17.659C185.419,107.676,187.117,110.054,186.777,112.431Z" transform="translate(-186.242 -87.3)" fill="#3c3c3c"/>
        <path id="Path_271" data-name="Path 271" d="M210.975,90.5c12.565,0,16.98,8.83,17.32,25.131,0,6.113-2.717,12.226-4.754,15.961a11.649,11.649,0,0,0-1.019,9.509l2.717,9.169c1.7,8.49-2.377,13.245-8.151,14.943a12.377,12.377,0,0,1-9.169-1.358c-3.056-2.038-3.4-6.452-2.717-9.849l.679-2.717a6.447,6.447,0,0,0-4.754-8.151c-9.509-2.038-10.867-12.226-13.584-27.508C184.825,99.33,198.749,90.5,210.975,90.5Z" transform="translate(-183.951 -79.633)" fill="#fab9af"/>
        <path id="Path_272" data-name="Path 272" d="M187.4,99.926a7.678,7.678,0,0,1,6.792-7.471,7.993,7.993,0,0,0,2.717-.679L211.172,87.7c8.49,0,22.754,4.754,21.056,17.32l-1.358,8.49a7.935,7.935,0,0,1-7.132,6.792h0a2.582,2.582,0,0,1-2.717,2.038,2.679,2.679,0,0,1-2.717-2.717,8.068,8.068,0,0,0-6.792-8.15c-4.754-1.019-9.849-3.4-14.943-2.038h0c-4.415,1.358-8.83-2.377-8.83-7.132A5.036,5.036,0,0,1,187.4,99.926Z" transform="translate(-183.469 -86.342)" fill="#3c3c3c"/>
        <path id="Path_273" data-name="Path 273" d="M197.3,103.032c0,3.736,1.358,6.792,5.094,6.792s6.113-5.094,6.113-9.169c0-3.736-2.377-4.754-6.113-4.754C198.658,96.24,197.3,99.3,197.3,103.032Z" transform="translate(-159.748 -66.694)" fill="#fab9af"/>
        <path id="Path_274" data-name="Path 274" d="M188.437,110.645a2.875,2.875,0,0,0,2.717,3.4h0a2.679,2.679,0,0,0,2.717-2.717V99.1c0-.34-.34-1.019-.34-1.358-.34-.34-.679-.34-1.358-.34s-1.358.34-1.358,1.019Z" transform="translate(-181.11 -63.1)" fill="#fa968c"/>
      </g>
      <path id="Path_275" data-name="Path 275" d="M186,113.868c.34-15.282,12.9-27.168,28.527-27.168s28.187,12.226,28.527,27.168Z" transform="translate(-55.852 -83.983)" fill="#ddd"/>
      <path id="Path_276" data-name="Path 276" d="M192,88.058a34.144,34.144,0,0,1,8.49-1.358c15.282,0,27.848,12.226,28.187,27.168H212.037C212.037,95.19,206.6,89.417,192,88.058Z" transform="translate(-41.475 -83.983)" fill="#6a6a6a"/>
      <path id="Path_277" data-name="Path 277" d="M188.333,92.9h42.111a6.448,6.448,0,0,1,6.452,6.452H182.22A5.8,5.8,0,0,1,188.333,92.9Z" transform="translate(-64.977 -69.128)" fill="#6a6a6a"/>
      <path id="Path_278" data-name="Path 278" d="M192.8,88.956c0,1.019,2.038,1.019,4.415,1.019s4.415,0,4.415-1.019-2.038-3.056-4.415-3.056C194.838,86.24,192.8,87.938,192.8,88.956Z" transform="translate(-39.559 -85.9)" fill="#5046af"/>
      <path id="Path_279" data-name="Path 279" d="M192.134,94.7c-2.038,2.377-3.736,5.434-3.736,8.49h0a1.6,1.6,0,0,1-1.7-1.7V96.4a1.6,1.6,0,0,1,1.7-1.7Z" transform="translate(-54.174 -64.815)" fill="#3c3c3c"/>
      <g id="Group_116" data-name="Group 116" transform="translate(94.404 152.396)">
        <path id="Path_280" data-name="Path 280" d="M183.372,245.647,392.908,277.91a9.245,9.245,0,0,0,10.528-7.811l14.943-96.448a9.245,9.245,0,0,0-7.811-10.528L201.031,130.861a9.245,9.245,0,0,0-10.528,7.811l-14.943,96.448A9.245,9.245,0,0,0,183.372,245.647Z" transform="translate(-175.475 -130.775)" fill="#b4b4ff"/>
        <rect id="Rectangle_123" data-name="Rectangle 123" width="107.655" height="10.528" transform="translate(118.324 59.144) rotate(8.755)" fill="#6200ff"/>
        <rect id="Rectangle_124" data-name="Rectangle 124" width="107.655" height="10.528" transform="translate(114.601 82.559) rotate(8.755)" fill="#6200ff"/>
        <rect id="Rectangle_125" data-name="Rectangle 125" width="107.655" height="10.528" transform="translate(111.214 106.026) rotate(8.755)" fill="#6200ff"/>
        <rect id="Rectangle_126" data-name="Rectangle 126" width="60.11" height="10.528" transform="translate(118.407 59.025) rotate(8.755)" fill="#827ddc"/>
        <rect id="Rectangle_127" data-name="Rectangle 127" width="74.373" height="10.528" transform="translate(114.725 82.718) rotate(8.755)" fill="#827ddc"/>
        <rect id="Rectangle_128" data-name="Rectangle 128" width="47.205" height="10.528" transform="translate(111.17 106.211) rotate(8.755)" fill="#827ddc"/>
        <g id="Group_115" data-name="Group 115" transform="translate(11.509 12.535)">
          <rect id="Rectangle_129" data-name="Rectangle 129" width="8.151" height="90.674" transform="matrix(0.988, 0.152, -0.152, 0.988, 13.81, 0)" fill="#6200ff"/>
          <rect id="Rectangle_130" data-name="Rectangle 130" width="8.151" height="90.674" transform="matrix(0.988, 0.152, -0.152, 0.988, 28.783, 2.068)" fill="#6200ff"/>
          <rect id="Rectangle_131" data-name="Rectangle 131" width="8.151" height="90.674" transform="translate(43.393 4.376) rotate(8.755)" fill="#6200ff"/>
          <rect id="Rectangle_132" data-name="Rectangle 132" width="8.151" height="90.674" transform="translate(58.319 6.775) rotate(8.755)" fill="#6200ff"/>
          <rect id="Rectangle_133" data-name="Rectangle 133" width="8.151" height="90.674" transform="matrix(0.988, 0.152, -0.152, 0.988, 73.226, 9.214)" fill="#6200ff"/>
          <rect id="Rectangle_134" data-name="Rectangle 134" width="8.151" height="90.674" transform="matrix(0.988, 0.152, -0.152, 0.988, 87.863, 11.231)" fill="#6200ff"/>
          <rect id="Rectangle_135" data-name="Rectangle 135" width="8.151" height="52.299" transform="matrix(0.988, 0.152, -0.152, 0.988, 8.175, 37.84)" fill="#827ddc"/>
          <rect id="Rectangle_136" data-name="Rectangle 136" width="8.151" height="40.073" transform="matrix(0.988, 0.152, -0.152, 0.988, 21.19, 52.049)" fill="#827ddc"/>
          <rect id="Rectangle_137" data-name="Rectangle 137" width="8.151" height="45.167" transform="translate(36.53 49.283) rotate(8.755)" fill="#827ddc"/>
          <rect id="Rectangle_138" data-name="Rectangle 138" width="8.151" height="41.771" transform="translate(50.865 55.049) rotate(8.755)" fill="#827ddc"/>
          <rect id="Rectangle_139" data-name="Rectangle 139" width="8.151" height="31.244" transform="matrix(0.988, 0.152, -0.152, 0.988, 63.998, 67.585)" fill="#827ddc"/>
          <rect id="Rectangle_140" data-name="Rectangle 140" width="8.151" height="45.167" transform="matrix(0.988, 0.152, -0.152, 0.988, 80.996, 56.138)" fill="#827ddc"/>
        </g>
        <rect id="Rectangle_141" data-name="Rectangle 141" width="85.92" height="16.641" transform="translate(123.081 27.519) rotate(8.755)" fill="#6200ff"/>
      </g>
      <path id="Path_281" data-name="Path 281" d="M214.2,186.968c1.019-3.736,1.358-7.471,1.7-8.83a19.476,19.476,0,0,0,1.358-2.377c.679-1.358,2.038-3.056,2.038-4.415v-6.113c0-3.056,1.358-5.434,4.415-5.434h0c3.4,0,4.754,2.717,4.415,6.113v4.415c-.34,2.717.679,5.094,1.358,7.471,1.7,5.094.34,11.207-1.358,15.961-1.019,3.056-4.754,4.754-9.848,6.792-2.377,1.019-6.792,2.038-5.094-1.019,1.358-2.717,8.83-6.452,6.792-14.263,0-.34-.34-1.358-1.019-1.358-1.358,0-1.7,3.4-2.377,4.754-1.019,2.377-2.717,3.056-3.736,3.056C212.5,191.044,213.857,189.685,214.2,186.968Z" transform="translate(8.324 91.168)" fill="#fab9af"/>
      <path id="Path_282" data-name="Path 282" d="M221.952,111.79s48.563,65.2,48.224,101.542c0,24.791-10.528,79.128-10.528,79.128a48.3,48.3,0,0,1-5.094.34,24.781,24.781,0,0,1-5.094-.679s.34-69.279-3.736-81.845c-4.075-12.226-43.13-71.657-45.507-84.222C198.52,112.809,210.066,101.6,221.952,111.79Z" transform="translate(-22.185 -33.341)" fill="#ddd"/>
    </g>
  </g>
</svg>
